<?xml version="1.0" standalone="no"?><!DOCTYPE svg PUBLIC "-//W3C//DTD SVG 1.1//EN" "http://www.w3.org/Graphics/SVG/1.1/DTD/svg11.dtd"><svg t="1521713623180" class="icon" style="" viewBox="0 0 1031 1024" version="1.1" xmlns="http://www.w3.org/2000/svg" p-id="2721" xmlns:xlink="http://www.w3.org/1999/xlink" width="24.1640625" height="24"><defs><style type="text/css"></style></defs><path d="M1019.442176 509.474133L564.120576 54.152533A67.9936 67.9936 0 0 0 515.668309 34.184533a67.976533 67.976533 0 0 0-48.452266 19.968L209.219243 312.149333a0.597333 0.597333 0 0 1-1.006934-0.4096v-105.181866c0-17.271467-11.776-33.4848-28.859733-36.0448a34.1504 34.1504 0 0 0-39.406933 33.7408v176.930133a0.597333 0.597333 0 0 1-0.170667 0.4096L11.894443 509.474133c-13.602133 13.602133-16.366933 35.908267-4.010667 50.619734a36.1984 36.1984 0 0 0 53.384533 2.389333l79.138134-79.138133c0.375467-0.375467 1.006933-0.1024 1.006933 0.426666l-1.416533 437.777067a68.266667 68.266667 0 0 0 68.266666 68.266667h614.8096a68.266667 68.266667 0 0 0 68.266667-68.266667l-1.416533-437.777067c0-0.529067 0.631467-0.785067 1.006933-0.426666l79.138133 79.138133a36.1984 36.1984 0 0 0 53.384534-2.389333c12.373333-14.711467 9.591467-37.0176-4.010667-50.619734zM464.673109 324.2496A51.2 51.2 0 0 1 515.668309 273.066667a51.2 51.2 0 0 1 0 102.365866 51.182933 51.182933 0 0 1-50.9952-51.182933z m-51.2 596.753067V717.312a34.645333 34.645333 0 0 1 34.6624-34.6624h135.082667a34.645333 34.645333 0 0 1 34.6624 34.6624v203.690667a0.597333 0.597333 0 0 1-0.597333 0.597333H414.053376a0.597333 0.597333 0 0 1-0.580267-0.597333z" fill="#040000" p-id="2722"></path></svg>